<svg width="800" height="450" viewBox="0 0 800 450" fill="none" xmlns="http://www.w3.org/2000/svg">
<path d="M47 320L20 307L24.5 298L51.5 310.5L47 320Z" fill="#CCCCCC"/>
<path d="M47 342L20 329L24.5 320L51.5 332.5L47 342Z" fill="#CCCCCC"/>
<path d="M47 364L20 351L24.5 342L51.5 354.5L47 364Z" fill="#CCCCCC"/>
<path d="M47 386L20 373L24.5 364L51.5 376.5L47 386Z" fill="#CCCCCC"/>
<path d="M47 408L20 395L24.5 386L51.5 398.5L47 408Z" fill="#CCCCCC"/>
<path d="M47 430L20 417L24.5 408L51.5 420.5L47 430Z" fill="#CCCCCC"/>
<path d="M30 20H20V280L60 298.168V430H780V420.5L85 420L70 405V297.5L30 279V20Z" fill="#CCCCCC"/>
</svg>
